<svg height="42px" width="42px" viewBox="0 0 42 42" xmlns="http://www.w3.org/2000/svg">
    <g fill="var(--color-dialog-cancel, hsl(0deg 50% 50%))">
        <path d="
            M 21 17
            l 5 -5
            c 2 -2 6 2 4 4
            l -5 5
            l 5 5
            c 2 2 -2 6 -4 4
            l -5 -5
            l -5 5
            c -2 2 -6 -2 -4 -4
            l 5 -5
            l -5 -5
            c -2 -2 2 -6 4 -4
            z
            m 0 2
            l -5.8 -5.8
            c -1 -1 -3 1 -2 2
            l 5.8 5.8
            l -5.8 5.8
            c -1 1 1 3 2 2
            l 5.8 -5.8
            l 5.8 5.8
            c 1 1 3 -1 2 -2
            l -5.8 -5.8
            l 5.8 -5.8
            c 1 -1 -1 -3 -2 -2
            z" />
        <path fill-opacity="0.5" d="
            M 21 19
            l -5.8 -5.8
            c -1 -1 -3 1 -2 2
            l 5.8 5.8
            l -5.8 5.8
            c -1 1 1 3 2 2
            l 5.8 -5.8
            l 5.8 5.8
            c 1 1 3 -1 2 -2
            l -5.8 -5.8
            l 5.8 -5.8
            c 1 -1 -1 -3 -2 -2
            z" />
    </g>
</svg>
