<svg viewBox="-2 -2 28 28" class="glyph" xmlns="http://www.w3.org/2000/svg">
    <g fill="hsl(0deg 80% 50%)">
        <path d="
            M 12 2
            A 10 10 0 0 1 12 22
            A 10 10 0 0 1 12 2
            V 4
            A 8 8 0 0 0 12 20
            A 8 8 0 0 0 12 4
            Z" />
        <path transform="rotate(45, 12, 12)" d="
            M 11 9
            A 1 1 0 0 1 13 9
            V 11
            H 15
            A 1 1 0 0 1 15 13
            H 13
            V 15
            A 1 1 0 0 1 11 15
            V 13
            H 9
            A 1 1 0 0 1 9 11
            H 11
            Z" />
    </g>
</svg>
