<svg viewBox="-2 -2 28 28" class="glyph" xmlns="http://www.w3.org/2000/svg">
    <g fill="currentColor">
        <path d="
            M 1 5
            a 2 2 0 0 1 2 -2
            h 6
            a 2 2 0 0 1 1 0.27
            l 2 1.15
            a 2 2 0 0 0 1 0.27
            h 8
            a 2 2 0 0 1 2 2
            v 12.31
            a 2 2 0 0 1 -2 2
            h -18
            a 2 2 0 0 1 -2 -2
            z
            m 3 0
            a 1 1 0 0 0 -1 1
            v 12
            a 1 1 0 0 0 1 1
            h 16
            a 1 1 0 0 0 1 -1
            v -10.31
            a 1 1 0 0 0 -1 -1
            h -8
            a 2 2 0 0 1 -1 -0.27
            l -2 -1.15
            a 2 2 0 0 0 -1 -0.27
            z" />
        <path fill-opacity="0.5" d="
            M 12 6.69
            a 2 2 0 0 0 -1 0.29
            l -2 1.15
            a 2 2 0 0 1 -1 0.29
            h -5
            v -1
            h 4.5
            a 2 2 0 0 0 1 -0.29
            l 2 -1.15
            a 2 2 0 0 0 1 -0.29
            z" />
    </g>
</svg>
