<svg viewBox="-2 -2 28 28" xmlns="http://www.w3.org/2000/svg">
    <g fill="currentColor">
        <path d="
            M 19 0
            a 5 5 0 0 1 5 5
            v 14
            a 5 5 0 0 1 -5 5
            h -6
            a 5 5 0 0 1 -5 -5
            a 1 1 0 0 1 2 0
            a 3 3 0 0 0 3 3
            h 6
            a 3 3 0 0 0 3 -3
            v -14
            a 3 3 0 0 0 -3 -3
            h -6
            a 3 3 0 0 0 -3 3
            a 1 1 0 0 1 -2 0
            a 5 5 0 0 1 5 -5
            z" />
        <path fill-opacity="0.5">
                <animate attributeName="d" dur="2s" repeatCount="indefinite"
                    values="
                        M 1 13 a 1 1 0 0 1 0 -2 h 12 l -1.443 -2.5 c -0.5 -0.866 1.232 -1.866 1.732 -1 l 2.598 4.5 l -2.598 4.5 c -0.5 0.866 -2.232 0.134 -1.732 -1 l 1.443 -2.5 z;
                        M 1 13 a 1 1 0 0 1 0 -2 h 4 l -1.443 -2.5 c -0.5 -0.866 1.232 -1.866 1.732 -1 l 2.598 4.5 l -2.598 4.5 c -0.5 0.866 -2.232 0.134 -1.732 -1 l 1.443 -2.5 z;
                        M 1 13 a 1 1 0 0 1 0 -2 h 12 l -1.443 -2.5 c -0.5 -0.866 1.232 -1.866 1.732 -1 l 2.598 4.5 l -2.598 4.5 c -0.5 0.866 -2.232 0.134 -1.732 -1 l 1.443 -2.5 z" />
        </path>
    </g>
</svg>
