<svg viewBox="-2 -2 28 28" class="glyph" xmlns="http://www.w3.org/2000/svg">
    <g fill="currentColor">
        <path transform="rotate(200 12 14)" d="
            M 10.5 13
            l -6.5 0.4
            c -0.6 0.1 -0.6 1.1 0 1.2
            l 6.5 0.4" />
        <path d="
            M 12 12
            a 2 2 0 0 0 0 4
            a 2 2 0 0 0 0 -4
            m 0 1
            a 1 1 0 0 1 0 2
            a 1 1 0 0 1 0 -2
            z" />
        <g fill-opacity="0.5">
            <path d="
                M 1.97 18.63
                c -0.87 0.5 0.13 2.23 1 1.73
                l 0.87 -0.5
                c 0.87 -0.5 -0.13 -2.23 -1 -1.73
                z" />
            <path d="
                M 1 13
                c -1 0 -1 2 0 2
                h 1
                c 1 0 1 -2 0 -2
                z" />
            <path d="
                M 2.97 7.63
                c -0.87 -0.5 -1.87 1.23 -1 1.73
                l 0.87 0.5
                c 0.87 0.5 1.87 -1.23 1 -1.73
                z" />
            <path d="
                M 7.37 3.97
                c -0.5 -0.87 -2.23 0.13 -1.73 1
                l 0.5 0.87
                c 0.5 0.87 2.23 -0.13 1.73 -1
                z" />
            <path d="
                M 13 3
                c 0 -1 -2 -1 -2 0
                v 1
                c 0 1 2 1 2 0
                z" />
            <path d="
                M 18.37 4.97
                c 0.5 -0.87 -1.23 -1.87 -1.73 -1
                l -0.5 0.87
                c -0.5 0.87 1.23 1.87 1.73 1
                z" />
            <path d="
                M 22.03 9.37
                c 0.87 -0.5 -0.13 -2.23 -1 -1.73
                l -0.87 0.5
                c -0.87 0.5 0.13 2.23 1 1.73
                z" />
        </g>
    </g>
    <g fill="var(--color-overclock, hsl(0deg 25% 50%))">
        <path fill-opacity="0.5" d="
            M 23 15
            c 1 0 1 -2 0 -2
            h -1
            c -1 0 -1 2 0 2
            z" />
        <path d="
            M 21.03 20.37
            c 0.87 0.5 1.87 -1.23 1 -1.73
            l -0.87 -0.5
            c -0.87 -0.5 -1.87 1.23 -1 1.73
            z" />
    </g>
</svg>
