<svg viewBox="-2 -2 28 28" class="glyph" xmlns="http://www.w3.org/2000/svg">
    <g fill="currentColor">
        <path d="
            M 12 0
            l 9.24 3.83
            v 10.21
            a 8 8 0 0 1 -4 6.93
            l -5.24 3.03
            l -5.24 -3.03
            a 8 8 0 0 1 -4 -6.93
            v -10.21
            z
            m 0 2.31
            l -7.24 2.86
            v 8.87
            a 6 6 0 0 0 3 5.2
            l 4.24 2.45
            l 4.24 -2.45
            a 6 6 0 0 0 3 -5.2
            v -8.87
            z" />
        <path d="
            M 8 9
            a 4 4 0 0 1 8 0
            a 4 4 0 0 1 -8 0
            m 2 0
            a 2 2 0 0 0 4 0
            a 2 2 0 0 0 -4 0" />
        <path d="
            M 12 15
            c 6 0 7 3 7 4
            l -2 1
            c 0 -1 0 -3 -5 -3
            c -5 0 -5 2 -5 3
            l -2 -1
            c 0 -1 1 -4 7 -4
            z" />
        <g fill-opacity="0.5">
            <path d="
                M 10 9
                a 2 2 0 0 1 4 0
                a 2 2 0 0 1 -4 0" />
            <path d="
                M 12 17
                c 5 0 5 2 5 3
                l -5 3
                l -5 -3
                c 0 -1 0 -3 5 -3" />
        </g>
    </g>
</svg>
