<svg viewBox="-2 -2 28 28" class="glyph" xmlns="http://www.w3.org/2000/svg">
    <g fill="currentColor">
        <g transform="scale(0.72)" transform-origin="12 12">
            <path d="
                M 6 12
                a 6 6 0 0 1 12 0
                a 6 6 0 0 1 -12 0
                m 2 0
                a 4 4 0 0 0 8 0
                a 4 4 0 0 0 -8 0
                z" />
            <path fill-opacity="0.5" d="
                M 8 12
                a 4 4 0 0 1 8 0
                a 4 4 0 0 1 -8 0
                z" />
        </g>
        <g fill-opacity="0.5">
            <path d="
                M 0 5
                a 5 5 0 0 1 5 -5
                h 3
                a 1 1 0 0 1 0 2
                h -3
                a 3 3 0 0 0 -3 3
                v 3
                a 1 1 0 0 1 -2 0
                z" />
            <path d="
                M 19 0
                a 5 5 0 0 1 5 5
                v 3
                a 1 1 0 0 1 -2 0
                v -3
                a 3 3 0 0 0 -3 -3
                h -3
                a 1 1 0 0 1 0 -2
                z" />
            <path d="
                M 24 19
                a 5 5 0 0 1 -5 5
                h -3
                a 1 1 0 0 1 0 -2
                h 3
                a 3 3 0 0 0 3 -3
                v -3
                a 1 1 0 0 1 2 0
                z" />
            <path d="
                M 5 24
                a 5 5 0 0 1 -5 -5
                v -3
                a 1 1 0 0 1 2 0
                v 3
                a 3 3 0 0 0 3 3
                h 3
                a 1 1 0 0 1 0 2
                z" />
        </g>
    </g>
</svg>
