<svg viewBox="0 0 100 100" xmlns="http://www.w3.org/2000/svg">
    <g fill="currentColor">
        <path d="
            M 35 5
            A 4 4 0 0 1 35 13
            H 21
            A 8 8 0 0 0 13 21
            V 35
            A 4 4 0 0 1 5 35
            V 21
            A 16 16 0 0 1 21 5
            Z" />
        <path d="
            M 95 35
            A 4 4 0 0 1 87 35
            V 21
            A 8 8 0 0 0 79 13
            H 65
            A 4 4 0 0 1 65 5
            H 79
            A 16 16 0 0 1 95 21
            Z" />
        <path d="
            M 65 95
            A 4 4 0 0 1 65 87
            H 79
            A 8 8 0 0 0 87 79
            V 65
            A 4 4 0 0 1 95 65
            V 79
            A 16 16 0 0 1 79 95
            Z" />
        <path d="
            M 5 65
            A 4 4 0 0 1 13 65
            V 79
            A 8 8 0 0 0 21 87
            H 35
            A 4 4 0 0 1 35 95
            H 21
            A 16 16 0 0 1 5 79
            Z" />
        <g fill-opacity=".5">
            <path d="
                M 30 35
                A 4 4 0 0 1 38 35
                V 65
                A 4 4 0 0 1 30 65
                Z" />
            <path d="
                M 46 30
                A 4 4 0 0 1 54 30
                V 70
                A 4 4 0 0 1 46 70
                Z" />
            <path d="
                M 62 35
                A 4 4 0 0 1 70 35
                V 65
                A 4 4 0 0 1 62 65
                Z" />
        </g>
    </g>
</svg>
