<svg viewBox="-2 -2 28 28" class="glyph" xmlns="http://www.w3.org/2000/svg">
    <g fill="currentColor">
        <g transform="scale(0.72)" transform-origin="12 12">
            <path d="
                M 1 5
                a 2 2 0 0 1 2 -2
                h 6
                a 2 2 0 0 1 1 0.27
                l 2 1.15
                a 2 2 0 0 0 1 0.27
                h 8
                a 2 2 0 0 1 2 2
                v 12.31
                a 2 2 0 0 1 -2 2
                h -18
                a 2 2 0 0 1 -2 -2
                z
                m 3 0
                a 1 1 0 0 0 -1 1
                v 12
                a 1 1 0 0 0 1 1
                h 16
                a 1 1 0 0 0 1 -1
                v -10.31
                a 1 1 0 0 0 -1 -1
                h -8.31
                a 2 2 0 0 1 -1 -0.27
                l -2 -1.15
                a 2 2 0 0 0 -1 -0.27
                z" />
            <path fill-opacity="0.5" d="
                M 12 6.69
                a 2 2 0 0 0 -1 0.29
                l -2 1.15
                a 2 2 0 0 1 -1 0.29
                h -5
                v -1
                h 4.5
                a 2 2 0 0 0 1 -0.29
                l 2 -1.15
                a 2 2 0 0 0 1 -0.29
                z" />
        </g>
        <g fill-opacity="0.5">
            <path d="
                M 0 5
                a 5 5 0 0 1 5 -5
                h 3
                a 1 1 0 0 1 0 2
                h -3
                a 3 3 0 0 0 -3 3
                v 3
                a 1 1 0 0 1 -2 0
                z" />
            <path d="
                M 19 0
                a 5 5 0 0 1 5 5
                v 3
                a 1 1 0 0 1 -2 0
                v -3
                a 3 3 0 0 0 -3 -3
                h -3
                a 1 1 0 0 1 0 -2
                z" />
            <path d="
                M 24 19
                a 5 5 0 0 1 -5 5
                h -3
                a 1 1 0 0 1 0 -2
                h 3
                a 3 3 0 0 0 3 -3
                v -3
                a 1 1 0 0 1 2 0
                z" />
            <path d="
                M 5 24
                a 5 5 0 0 1 -5 -5
                v -3
                a 1 1 0 0 1 2 0
                v 3
                a 3 3 0 0 0 3 3
                h 3
                a 1 1 0 0 1 0 2
                z" />
        </g>
    </g>
</svg>
