<svg viewBox="-2 -2 28 28" class="glyph" xmlns="http://www.w3.org/2000/svg">
    <g fill="currentColor">
        <path d="
            M 6 5.5
            a 1 1 0 0 0 0 2
            h 1
            a 4 5 0 0 1 4 5
            a 6 7 0 0 0 6 7
            h 3
            l -1.44 2.5
            c -0.5 0.87 1.23 1.87 1.73 1
            l 2.6 -4.5
            l -2.6 -4.5
            c -0.5 -0.87 -2.23 0.13 -1.73 1
            l 1.44 2.5
            h -3
            a 4 5 0 0 1 -4 -5
            a 6 7 0 0 0 -6 -7
            z" />

        <g fill-opacity="0.5">
            <path d="
                M 1 5.5
                a 1 1 0 0 0 0 2
                h 4
                a 1 1 0 0 1 0 -2
                z" />

            <path d="
                M 9 5.5
                a 4 5 0 0 1 3.2 2
                h 7.8
                l -1.44 2.5
                c -0.5 0.87 1.23 1.87 1.73 1
                l 2.6 -4.5
                l -2.6 -4.5
                c -0.5 -0.87 -2.23 0.13 -1.73 1
                l 1.44 2.5
                z" />
        </g>
    </g>
</svg>
