<svg viewBox="-2 -2 28 28" class="glyph" xmlns="http://www.w3.org/2000/svg">
    <g fill="currentColor">
        <path d="
            M 0 12
            a 12 12 0 0 1 24 0
            a 12 12 0 0 1 -24 0
            m 2 0
            a 10 10 0 0 0 20 0
            a 10 10 0 0 0 -20 0
            z" />
        <path d="
            M 8 9
            a 4 4 0 0 1 8 0
            a 4 4 0 0 1 -8 0
            m 2 0
            a 2 2 0 0 0 4 0
            a 2 2 0 0 0 -4 0" />
        <path d="
            M 12 15
            c 6 0 7 4 7 5
            l -2 1
            c 0 -1 0 -4 -5 -4
            c -5 0 -5 3 -5 4
            l -2 -1
            c 0 -1 1 -5 7 -5
            z" />
        <g fill-opacity="0.5">
            <path d="
                M 10 9
                a 2 2 0 0 1 4 0
                a 2 2 0 0 1 -4 0" />
            <path d="
                M 12 17
                c 5 0 5 3 5 4
                a 10 10 0 0 1 -10 0
                c 0 -1 0 -4 5 -4" />
        </g>
    </g>
</svg>
