<svg viewBox="-2 -2 28 28" class="glyph" xmlns="http://www.w3.org/2000/svg">
    <g fill="currentColor">
        <path d="
            M 0 12
            a 12 12 0 0 1 24 0
            a 12 12 0 0 1 -24 0
            m 2 0
            a 10 10 0 0 0 20 0
            a 10 10 0 0 0 -20 0
            z" />
        <g fill-opacity="0.25">
            <path d="
                M 11 15
                a 1 1 0 0 0 2 0
                v -2
                c 0 -1 1.96 -2.13 2.46 -3
                a 4 4 0 1 0 -7.46 -2
                a 1 1 0 0 0 2 0
                a 2 2 0 1 1 3 1.73
                c -0.87 0.5 -2 2 -2 3
                z" />
            <path d="
                M 11 19
                a 1 1 0 0 1 2 0
                a 1 1 0 0 1 -2 0
                z" />
        </g>
    </g>
</svg>
