<svg viewBox="-2 -2 28 28" class="glyph" xmlns="http://www.w3.org/2000/svg">
    <g fill="currentColor">
        <path d="
            M 12 0
            l 9.24 3.83
            v 10.21
            a 8 8 0 0 1 -4 6.93
            l -5.24 3.03
            l -5.24 -3.03
            a 8 8 0 0 1 -4 -6.93
            v -10.21
            z
            m 0 2.31
            l -7.24 2.86
            v 8.87
            a 6 6 0 0 0 3 5.2
            l 4.24 2.45
            l 4.24 -2.45
            a 6 6 0 0 0 3 -5.2
            v -8.87
            z" />
        <path fill-opacity="0.5" d="
            M 12 10
            a 2.5 2.5 0 1 0 -2.5 2.5
            l 0.5 0.5
            l 1.5 -0.5
            l -0.5 1.5
            l 1.5 -0.5
            l 0.5 0.5
            l -0.5 1.5
            l 1.5 -0.5
            l -0.5 1.5
            h 2.5
            v -2.5
            z
            m -1.5 0
            a 1 1 0 0 1 -2 0
            a 1 1 0 0 1 2 0" />
    </g>
</svg>
