<svg viewBox="-2 -2 28 28" class="glyph" xmlns="http://www.w3.org/2000/svg">
    <g fill="currentColor">
        <path d="
            M 12 9
            l 4.5 2.6
            c 0.87 0.5 -0.13 2.23 -1 1.73
            l -2.5 -1.44
            v 7.11
            a 1 1 0 0 1 -2 0
            v -7.11
            l -2.5 1.44
            c -0.87 0.5 -1.87 -1.23 -1 -1.73
            z" />
        <path d="
            M 8 6
            a 1 1 0 0 0 0 2
            h 8
            a 1 1 0 0 0 0 -2" />
        <g fill-opacity="0.5">
            <path d="
                M 0.91 7.41
                a 12 12 0 0 1 6.5 -6.5
                a 1 1 0 0 1 0.76 1.85
                a 10 10 0 0 0 -5.41 5.41
                a 1 1 0 0 1 -1.86 -0.76" />
            <path d="
                M 16.59 0.91
                a 12 12 0 0 1 6.5 6.5
                a 1 1 0 0 1 -1.85 0.76
                a 10 10 0 0 0 -5.41 -5.41
                a 1 1 0 0 1 0.76 -1.86" />
            <path d="
                M 23.09 16.59
                a 12 12 0 0 1 -6.5 6.5
                a 1 1 0 0 1 -0.76 -1.85
                a 10 10 0 0 0 5.41 -5.41
                a 1 1 0 0 1 1.86 0.76" />
            <path d="
                M 7.41 23.09
                a 12 12 0 0 1 -6.5 -6.5
                a 1 1 0 0 1 1.85 -0.76
                a 10 10 0 0 0 5.41 5.41
                a 1 1 0 0 1 -0.76 1.86" />
        </g>
    </g>
</svg>
