<svg height="42px" width="42px" viewBox="0 0 42 42" xmlns="http://www.w3.org/2000/svg">
    <g fill="var(--color-checkmark, hsl(120deg 25% 50%))">
        <path d="
            M 17 24.5
            l -4 -4
            c -2 -2 -6 2 -4 4
            l 4 4
            l 2 2
            a 2.83 2.83 0 0 0 4 0
            l 2 -2
            l 12 -12
            a 2.83 2.83 0 0 0 -4 -4
            z
            m 0 2
            l 13 -13
            a 1.41 1.41 0 0 1 2 2
            l -13 13
            l -1 1
            a 1.41 1.41 0 0 1 -2 0
            l -1 -1
            l -4.8 -4.8
            c -1 -1 1 -3 2 -2
            z" />
        <path fill-opacity="0.5" d="
            M 17 26.5
            l 13 -13
            a 1.41 1.41 0 0 1 2 2
            l -13 13
            l -1 1
            a 1.41 1.41 0 0 1 -2 0
            l -1 -1
            l -4.8 -4.8
            c -1 -1 1 -3 2 -2
            z" />
    </g>
</svg>
