<svg viewBox="-15 -15 54 54" xmlns="http://www.w3.org/2000/svg">
    <g fill="currentColor">
        <path fill-opacity="0.5" d="
            M 6.072 1.732
            l 17.785 10.268
            l -17.785 10.268
            z" />
        <path d="
            M 5.072 1.732
            a 1 1 0 0 1 1.5 -0.866
            l 17.785 10.268
            a 1 1 0 0 1 0 1.732
            l -17.785 10.268
            a 1 1 0 0 1 -1.5 -0.866
            z
            M 7.072 19.670
            a 0.5 0.5 0 0 0 0.75 0.433
            l 13.285 -7.670
            a 0.5 0.5 0 0 0 0 -0.866
            l -13.285 -7.670
            a 0.5 0.5 0 0 0 -0.75 0.433
            z" />
    </g>
</svg>
