<svg fill="currentColor" height="42px" width="42px" viewBox="0 0 42 42" xmlns="http://www.w3.org/2000/svg">
    <path d="M 13 8 h 13 l 5 5 v 11 l -1 -0.5 v -9.5 h -5 v -5 h -11 v 22 h 8.5 l 0.5 1 h -10 z M 26 9.5 v 3.5 h 3.5" />
    <path d="M 22 29 a 6 6 0 0 1 12 0 a 6 6 0 0 1 -12 0 m 1 0 a 5 5 0 0 0 10 0 a 5 5 0 0 0 -10 0" />
    <g fill-opacity="0.5">
        <path d="M 16 12 h 7 v 1 h -7" />
        <path d="M 16 15 h 7 v 1 h -7" />
        <path d="M 16 18 h 12 v 1 h -12" />
        <path d="M 16 21 h 8 v 1 h -8" />
        <path d="M 16 24 h 5 v 1 h -5" />
    </g>
    <path fill="var(--color-rename, hsl(240deg 50% 75%))" d="
        M 28.5 25.5 l 2.5 6 h -1 l -0.75 -1.8 h -2.5 l -0.75 1.8 h -1 l 2.5 -6 z m -0.5 1.2 l -0.83 2 h 1.67
        " />
</svg>
