<svg viewBox="-2 -2 28 28" xmlns="http://www.w3.org/2000/svg">
    <g fill="currentColor">
        <path d="
            M 2.75 4
            a 3 4 0 0 1 3 -4
            h 15.5
            a 2 4 0 0 1 2 4
            a 1 1 0 0 1 -1 1
            h -1
            v 14
            a 5 5 0 0 1 -5 5
            h -12.5
            a 5 5 0 0 1 -5 -5
            a 1 1 0 0 1 1 -1
            h 3
            z
            M 6.25 2
            a 1.5 2 0 0 0 -1.5 2
            v 14
            h 8
            a 0.5 0.5 0 0 1 0.5 0.5
            v 0.5
            a 3 3 0 0 0 6 0
            v -15
            a 1.5 2 0 0 1 1.5 -2
            z" />
        <g fill-opacity="0.5">
            <path d="
                M 7 4
                c -1 0 -1 2 0 2
                h 9
                c 1 0 1 -2 0 -2
                z" />
            <path d="
                M 7 8
                c -1 0 -1 2 0 2
                h 10
                c 1 0 1 -2 0 -2
                z" />
            <path d="
                M 7 12
                c -1 0 -1 2 0 2
                h 7
                c 1 0 1 -2 0 -2
                z" />
        </g>
    </g>
</svg>
