<svg height="42px" width="42px" viewBox="0 0 42 42" xmlns="http://www.w3.org/2000/svg">
    <g fill="currentColor">
        <path d="
            M 13 8
            h 13
            l 5 5
            v 11
            l -1 -0.5
            v -9.5
            h -5
            v -5
            h -11
            v 22
            h 8.5
            l 0.5 1
            h -10
            z
            M 26 9.5
            v 3.5
            h 3.5
            z" />
        <path d="
            M 22 29
            a 6 6 0 0 1 12 0
            a 6 6 0 0 1 -12 0
            m 1 0
            a 5 5 0 0 0 10 0
            a 5 5 0 0 0 -10 0" />
        <g fill-opacity="0.5">
            <path d="
                M 16 12
                h 7
                v 1
                h -7
                z" />
            <path d="
                M 16 15
                h 7
                v 1
                h -7
                z" />
            <path d="
                M 16 18
                h 12
                v 1
                h -12
                z" />
            <path d="
                M 16 21
                h 8
                v 1
                h -8
                z" />
            <path d="
                M 16 24
                h 5
                v 1
                h -5
                z" />
        </g>
    </g>
    <path fill="var(--color-plus, hsl(120deg 25% 50%))" d="
        M 25 28
        c -1 0 -1 2 0 2
        h 2
        v 2
        c 0 1 2 1 2 0
        v -2
        h 2
        c 1 0 1 -2 0 -2
        h -2
        v -2
        c 0 -1 -2 -1 -2 0
        v 2
        z" />
</svg>
