<svg viewBox="-15 -15 54 54" xmlns="http://www.w3.org/2000/svg">
    <g fill="currentColor">
        <path fill-opacity="0.5" d="
            M 3 3
            h 18
            v 18
            h -18
            z" />
        <path d="
            M 2 3
            a 1 1 0 0 1 1 -1
            h 18
            a 1 1 0 0 1 1 1
            v 18
            a 1 1 0 0 1 -1 1
            h -18
            a 1 1 0 0 1 -1 -1
            z
            M 4 19.5
            a 0.5 0.5 0 0 0 0.5 0.5
            h 15
            a 0.5 0.5 0 0 0 0.5 -0.5
            v -15
            a 0.5 0.5 0 0 0 -0.5 -0.5
            h -15
            a 0.5 0.5 0 0 0 -0.5 0.5
            z" />
    </g>
</svg>
