<svg class="glyph" fill="currentColor" viewBox="-14 -14 28 28" xmlns="http://www.w3.org/2000/svg">
    <path d="
        M 0 -12 l 9.24 3.83 v 10.21 a 8 8 0 0 1 -4 6.93 l -5.24 3.03 l -5.24 -3.03 a 8 8 0 0 1 -4 -6.93 v -10.21 z
        m 0 2.31 l -7.24 2.86 v 8.87 a 6 6 0 0 0 3 5.2 l 4.24 2.45 l 4.24 -2.45 a 6 6 0 0 0 3 -5.2 v -8.87" />
    <g fill-opacity="0.25">
        <path d="M 0 0 v -9.69 l 7.24 2.86 v 6.83" />
        <path d="M 0 0 v 9.69 l -4.24 -2.45 a 6 6 0 0 1 -3 -5.2 v -2.04" />
    </g>
</svg>
