<svg class="glyph" fill="currentColor" viewBox="-14 -14 28 28" xmlns="http://www.w3.org/2000/svg">
    <path d="
            M -11 -7 a 2 2 0 0 1 2 -2 h 6 a 2 2 0 0 1 1 0.27 l 2 1.15 a 2 2 0 0 0 1 0.27 h 8 a 2 2 0 0 1 2 2 v 12.31 a 2 2 0 0 1 -2 2 h -18 a 2 2 0 0 1 -2 -2 z
            m 3 0 a 1 1 0 0 0 -1 1 v 12 a 1 1 0 0 0 1 1 h 16 a 1 1 0 0 0 1 -1 v -10.31 a 1 1 0 0 0 -1 -1 h -8.31 a 2 2 0 0 1 -1 -0.27 l -2 -1.15 a 2 2 0 0 0 -1 -0.27" />
    <path fill-opacity="0.5" d="
        M 0 -5.31 a 2 2 0 0 0 -1 0.29 l -2 1.15 a 2 2 0 0 1 -1 0.29 h -5 v -1 h 4.5 a 2 2 0 0 0 1 -0.29 l 2 -1.15 a 2 2 0 0 0 1 -0.29" />
</svg>
